<?xml version="1.0" encoding="UTF-8"?>
<svg version="1.1" xmlns="http://www.w3.org/2000/svg" width="148" height="148">
<path d="M0 0 C2.4668957 1.92574611 4.81756076 3.92387174 7.14453125 6.015625 C7.75554687 6.53382812 8.3665625 7.05203125 8.99609375 7.5859375 C20.52347711 18.06059178 29.16337852 35.39585902 30.3659668 50.86376953 C31.23044531 74.4830182 27.40015531 93.93205927 11.14453125 112.015625 C10.62632812 112.62664062 10.108125 113.23765625 9.57421875 113.8671875 C-0.90043553 125.39457086 -18.23570277 134.03447227 -33.70361328 135.23706055 C-57.32286195 136.10153906 -76.77190302 132.27124906 -94.85546875 116.015625 C-95.46648437 115.49742187 -96.0775 114.97921875 -96.70703125 114.4453125 C-108.23441461 103.97065822 -116.87431602 86.63539098 -118.0769043 71.16748047 C-118.94138281 47.5482318 -115.11109281 28.09919073 -98.85546875 10.015625 C-98.33726563 9.40460937 -97.8190625 8.79359375 -97.28515625 8.1640625 C-72.82193472 -18.75777426 -28.75420665 -19.98240353 0 0 Z " fill="#F67501" transform="translate(117.85546875,12.984375)"/>
<path d="M0 0 C2.4668957 1.92574611 4.81756076 3.92387174 7.14453125 6.015625 C7.75554687 6.53382812 8.3665625 7.05203125 8.99609375 7.5859375 C20.52347711 18.06059178 29.16337852 35.39585902 30.3659668 50.86376953 C31.23044531 74.4830182 27.40015531 93.93205927 11.14453125 112.015625 C10.62632812 112.62664062 10.108125 113.23765625 9.57421875 113.8671875 C-0.90043553 125.39457086 -18.23570277 134.03447227 -33.70361328 135.23706055 C-57.32286195 136.10153906 -76.77190302 132.27124906 -94.85546875 116.015625 C-95.46648437 115.49742187 -96.0775 114.97921875 -96.70703125 114.4453125 C-108.23441461 103.97065822 -116.87431602 86.63539098 -118.0769043 71.16748047 C-118.94138281 47.5482318 -115.11109281 28.09919073 -98.85546875 10.015625 C-98.33726563 9.40460937 -97.8190625 8.79359375 -97.28515625 8.1640625 C-72.82193472 -18.75777426 -28.75420665 -19.98240353 0 0 Z M-92.16796875 5.078125 C-92.78285156 5.58472656 -93.39773437 6.09132813 -94.03125 6.61328125 C-100.59366849 15.25543837 -100.46426849 25.00024515 -100.421875 35.390625 C-100.42712189 36.96663782 -100.43340223 38.5426475 -100.44065857 40.11865234 C-100.45101333 43.40672686 -100.44657218 46.69436726 -100.43188477 49.98242188 C-100.41469115 54.17196581 -100.43822387 58.36013884 -100.47337437 62.54953003 C-100.49545354 65.79948818 -100.49388193 69.04912344 -100.48560905 72.2991333 C-100.48479552 73.84272772 -100.49154316 75.38634728 -100.50638008 76.92987061 C-100.58677821 86.80414768 -99.95297327 95.05569028 -93.2983551 102.83618164 C-85.01498905 110.74795535 -74.69137588 110.45648747 -63.85546875 110.37890625 C-62.41015626 110.37838635 -60.96484305 110.37890907 -59.51953125 110.38041687 C-56.50379756 110.38032763 -53.48833385 110.36999692 -50.47265625 110.35180664 C-46.62976784 110.32912123 -42.7872729 110.32858063 -38.94433594 110.33532429 C-35.96383235 110.33868446 -32.98341655 110.33199587 -30.00292969 110.32219505 C-28.58691875 110.31837798 -27.17089799 110.31718014 -25.75488281 110.3187809 C-10.85903949 110.50042458 -10.85903949 110.50042458 2.14453125 104.015625 C7.94847199 97.94173353 10.5117641 92.17532121 10.54858398 83.77026367 C10.55887886 82.73943916 10.55887886 82.73943916 10.56938171 81.68778992 C10.58754801 79.43617555 10.58382601 77.18526505 10.578125 74.93359375 C10.58269278 73.35329465 10.58800012 71.77299753 10.5940094 70.19270325 C10.60292136 66.88676873 10.60054064 63.581076 10.59057617 60.27514648 C10.57910828 56.06216604 10.5992736 51.85002653 10.62849331 47.63715649 C10.6469445 44.37436212 10.6465449 41.11176578 10.64085579 37.84893227 C10.64070356 36.29696793 10.64666583 34.74498933 10.65914726 33.19307518 C10.72605427 23.50844805 10.5407252 14.46935268 4.1796875 6.578125 C-3.41946533 0.55899405 -9.720217 -1.08680592 -19.45239258 -1.14550781 C-20.7442598 -1.15511536 -22.03612701 -1.1647229 -23.36714172 -1.17462158 C-24.76559266 -1.17947046 -26.16404568 -1.18374907 -27.5625 -1.1875 C-28.27391333 -1.19032738 -28.98532665 -1.19315475 -29.71829796 -1.19606781 C-33.48285665 -1.21101125 -37.2473775 -1.2202714 -41.01196289 -1.22460938 C-44.87851817 -1.23008824 -48.7447203 -1.25411756 -52.61116505 -1.28258133 C-55.60451742 -1.30130344 -58.59778629 -1.30641836 -61.59119225 -1.30794525 C-63.01560077 -1.31095053 -64.44000859 -1.31890628 -65.8643589 -1.33213043 C-75.29201934 -1.41341757 -84.69329299 -1.43620698 -92.16796875 5.078125 Z " fill="#F0EFEE" transform="translate(117.85546875,12.984375)"/>
<path d="M0 0 C2.64 0 5.28 0 8 0 C9.65 4.62 11.3 9.24 13 14 C14.65 9.38 16.3 4.76 18 0 C20.64 0 23.28 0 26 0 C26 7.92 26 15.84 26 24 C24.35 24 22.7 24 21 24 C20.505 17.565 20.505 17.565 20 11 C18.68 14.96 17.36 18.92 16 23 C14.35 23.33 12.7 23.66 11 24 C9.35 20.04 7.7 16.08 6 12 C5.67 15.96 5.34 19.92 5 24 C3.35 24 1.7 24 0 24 C0 16.08 0 8.16 0 0 Z " fill="#F6F2EF" transform="translate(30,55)"/>
<path d="M0 0 C1.17755859 0.13148437 1.17755859 0.13148437 2.37890625 0.265625 C4.4375 0.75 4.4375 0.75 6.4375 2.75 C6.58247985 5.33064129 6.62427545 7.79943884 6.5625 10.375 C6.55347656 11.08140625 6.54445313 11.7878125 6.53515625 12.515625 C6.51157603 14.26056098 6.47570461 16.00532295 6.4375 17.75 C5.52226563 17.73582031 4.60703125 17.72164062 3.6640625 17.70703125 C0.35100739 17.65797675 0.35100739 17.65797675 -3.1875 18.4375 C-6.5625 18.75 -6.5625 18.75 -9 17.3125 C-9.515625 16.796875 -10.03125 16.28125 -10.5625 15.75 C-10.25 12.875 -10.25 12.875 -9.5625 9.75 C-6.11799263 7.45366176 -3.62437717 7.20983515 0.4375 6.75 C0.4375 6.09 0.4375 5.43 0.4375 4.75 C-2.8625 5.08 -6.1625 5.41 -9.5625 5.75 C-7.04668112 0.71836225 -5.4551183 -0.68301316 0 0 Z " fill="#F6EDE6" transform="translate(67.5625,61.25)"/>
<path d="M0 0 C1.65 0 3.3 0 5 0 C5.66 1.32 6.32 2.64 7 4 C7.66 4 8.32 4 9 4 C9.66 2.68 10.32 1.36 11 0 C12.65 0 14.3 0 16 0 C15.29875 1.051875 14.5975 2.10375 13.875 3.1875 C12.11947357 6.19261598 12.11947357 6.19261598 12.5625 9.625 C13.036875 10.40875 13.51125 11.1925 14 12 C14.53625 12.928125 15.0725 13.85625 15.625 14.8125 C16.305625 15.8953125 16.305625 15.8953125 17 17 C14.125 17.1875 14.125 17.1875 11 17 C10.34 16.01 9.68 15.02 9 14 C8.34 14 7.68 14 7 14 C6.01 15.485 6.01 15.485 5 17 C2.375 17.1875 2.375 17.1875 0 17 C2 12 2 12 3.375 9.625 C4.12150102 6.4896957 3.67503796 5.90006643 2.125 3.1875 C1.42375 2.135625 0.7225 1.08375 0 0 Z " fill="#F6F0ED" transform="translate(76,62)"/>
<path d="M0 0 C1.65 0 3.3 0 5 0 C5 1.65 5 3.3 5 5 C5.99 5 6.98 5 8 5 C8 5.99 8 6.98 8 8 C7.01 8 6.02 8 5 8 C5 11.63 5 15.26 5 19 C5.99 19 6.98 19 8 19 C8 19.99 8 20.98 8 22 C5.125 22.125 5.125 22.125 2 22 C0 20 0 20 -0.1953125 17.1796875 C-0.17210938 16.08914062 -0.14890625 14.99859375 -0.125 13.875 C-0.10695313 12.77929688 -0.08890625 11.68359375 -0.0703125 10.5546875 C-0.04710938 9.71164063 -0.02390625 8.86859375 0 8 C-0.99 8 -1.98 8 -3 8 C-3 7.01 -3 6.02 -3 5 C-2.01 5 -1.02 5 0 5 C0 3.35 0 1.7 0 0 Z " fill="#070300" transform="translate(108,57)"/>
<path d="M0 0 C-0.33 0.99 -0.66 1.98 -1 3 C0.32 2.67 1.64 2.34 3 2 C2.5020163 5.73487777 2.12508244 7.81237635 0 11 C-6.75 10.25 -6.75 10.25 -9 8 C-8.8125 5 -8.8125 5 -8 2 C-4.77208445 -0.1519437 -3.71599191 -0.20086443 0 0 Z " fill="#F6E8E0" transform="translate(66,69)"/>
<path d="M0 0 C3.3 0 6.6 0 10 0 C10 2.31 10 4.62 10 7 C11.32 7 12.64 7 14 7 C14 7.66 14 8.32 14 9 C9.38 9 4.76 9 0 9 C-0.33 8.01 -0.66 7.02 -1 6 C1.475 6.495 1.475 6.495 4 7 C1.22739701 5.06201737 1.22739701 5.06201737 -1 4 C-0.67 2.68 -0.34 1.36 0 0 Z " fill="#BE5B00" transform="translate(67,100)"/>
<path d="M0 0 C1.65 0 3.3 0 5 0 C5 5.61 5 11.22 5 17 C3.35 17 1.7 17 0 17 C0 11.39 0 5.78 0 0 Z " fill="#150900" transform="translate(99,62)"/>
<path d="M0 0 C-0.33 0.99 -0.66 1.98 -1 3 C-2.99609375 3.66015625 -2.99609375 3.66015625 -5.4375 4.0625 C-9.14163657 4.63171515 -9.14163657 4.63171515 -12 7 C-13.24546405 4.50907189 -12.7767578 3.58919267 -12 1 C-7.58774263 -0.47075246 -4.51718381 -1.36884358 0 0 Z " fill="#F67307" transform="translate(69,66)"/>
<path d="M0 0 C1.98 0 3.96 0 6 0 C6 0.66 6 1.32 6 2 C4.35 1.67 2.7 1.34 1 1 C1 1.66 1 2.32 1 3 C2.65 3.33 4.3 3.66 6 4 C6 5.65 6 7.3 6 9 C4.02 9 2.04 9 0 9 C-0.33 8.01 -0.66 7.02 -1 6 C1.475 6.495 1.475 6.495 4 7 C1.22739701 5.06201737 1.22739701 5.06201737 -1 4 C-0.67 2.68 -0.34 1.36 0 0 Z " fill="#210F00" transform="translate(67,100)"/>
<path d="M0 0 C0.5625 1.9375 0.5625 1.9375 1 4 C0 5 0 5 -3.0625 5.0625 C-4.5165625 5.0315625 -4.5165625 5.0315625 -6 5 C-5.67 3.68 -5.34 2.36 -5 1 C-3.35 0.67 -1.7 0.34 0 0 Z " fill="#F67813" transform="translate(68,71)"/>
<path d="M0 0 C0.66 0 1.32 0 2 0 C2 2.31 2 4.62 2 7 C3.32 7 4.64 7 6 7 C6 7.66 6 8.32 6 9 C4.02 9 2.04 9 0 9 C0 6.03 0 3.06 0 0 Z " fill="#281300" transform="translate(75,100)"/>
<path d="M0 0 C0.66 0.33 1.32 0.66 2 1 C1.04270084 2.12588014 0.08412105 3.2506715 -0.875 4.375 C-1.40867187 5.00148438 -1.94234375 5.62796875 -2.4921875 6.2734375 C-3.61432007 7.55836651 -4.79371975 8.79371975 -6 10 C-6.33 9.01 -6.66 8.02 -7 7 C-4.69 4.69 -2.38 2.38 0 0 Z " fill="#F2E7E0" transform="translate(26,16)"/>
<path d="M0 0 C1.65 0 3.3 0 5 0 C5 1.32 5 2.64 5 4 C3.35 4 1.7 4 0 4 C0 2.68 0 1.36 0 0 Z " fill="#2C1400" transform="translate(99,55)"/>
<path d="M0 0 C1.98 0 3.96 0 6 0 C5.01 0.495 5.01 0.495 4 1 C4 1.66 4 2.32 4 3 C2 4.625 2 4.625 0 6 C-1.24546405 3.50907189 -0.7767578 2.58919267 0 0 Z " fill="#F67C1B" transform="translate(57,67)"/>
</svg>
